<svg id="logo" data-name="Charter for Laravel" xmlns="http://www.w3.org/2000/svg" viewBox="115 108 282 290">
<defs><style>.cls-1{fill:#f15a30;}</style></defs>
<path class="cls-1" d="M142.57,322.09H226.2a1.43,1.43,0,0,0,1.43-1.44V169.32a1.43,1.43,0,0,0-2.69-.7L141.31,320A1.43,1.43,0,0,0,142.57,322.09Z"/>
<path class="cls-1" d="M250.2,316.43H383.72a2.14,2.14,0,0,0,1.76-3.35L251.85,119.9a2.13,2.13,0,0,0-3.88,1.21l.1,193.19A2.14,2.14,0,0,0,250.2,316.43Z"/>
<path class="cls-1" d="M126.69,349.91l23.87,37.5A12.09,12.09,0,0,0,160.78,393H329.14a9.94,9.94,0,0,0,8.68-5.1l28.06-50.34a3.24,3.24,0,0,0-3-4.81L129.46,344.55A3.49,3.49,0,0,0,126.69,349.91Z"/>
</svg>
